{
  "accessors": [
    {
      "bufferView": 1,
      "componentType": 5126,
      "count": 160,
      "max": [
        6.185009956359863,
        0.7815200090408325,
        6.924270153045654
      ],
      "min": [
        -6.253339767456055,
        -0.7815200090408325,
        1.4697400331497192
      ],
      "type": "VEC3"
    },
    {
      "bufferView": 1,
      "byteOffset": 1920,
      "componentType": 5126,
      "count": 160,
      "max": [
        1.0,
        1.0,
        1.0
      ],
      "min": [
        -1.0,
        -1.0,
        -1.0
      ],
      "type": "VEC3"
    },
    {
      "bufferView": 0,
      "componentType": 5125,
      "count": 288,
      "type": "SCALAR"
    },
    {
      "bufferView": 1,
      "byteOffset": 3840,
      "componentType": 5126,
      "count": 308,
      "max": [
        8.492989540100098,
        1.3194999694824219,
        7.772870063781738
      ],
      "min": [
        -8.561320304870605,
        -1.3194999694824219,
        -0.10993000119924545
      ],
      "type": "VEC3"
    },
    {
      "bufferView": 1,
      "byteOffset": 7536,
      "componentType": 5126,
      "count": 308,
      "max": [
        1.0,
        1.0,
        0.99994295835495
      ],
      "min": [
        -1.0,
        -1.0,
        -1.0
      ],
      "type": "VEC3"
    },
    {
      "bufferView": 0,
      "byteOffset": 1152,
      "componentType": 5125,
      "count": 504,
      "type": "SCALAR"
    },
    {
      "bufferView": 1,
      "byteOffset": 11232,
      "componentType": 5126,
      "count": 72,
      "max": [
        4.827960014343262,
        1.0,
        1.4697400331497192
      ],
      "min": [
        -4.827960014343262,
        -1.0,
        1.345289945602417
      ],
      "type": "VEC3"
    },
    {
      "bufferView": 1,
      "byteOffset": 12096,
      "componentType": 5126,
      "count": 72,
      "max": [
        0.7880679368972778,
        0.6824835538864136,
        1.0
      ],
      "min": [
        -0.7880679368972778,
        -0.6824835538864136,
        0.615588366985321
      ],
      "type": "VEC3"
    },
    {
      "bufferView": 0,
      "byteOffset": 3168,
      "componentType": 5125,
      "count": 144,
      "type": "SCALAR"
    },
    {
      "bufferView": 1,
      "byteOffset": 12960,
      "componentType": 5126,
      "count": 816,
      "max": [
        10.652910232543945,
        4.9043498039245605,
        11.01294994354248
      ],
      "min": [
        -3.4274098873138428,
        -4.877620220184326,
        -0.8810700178146362
      ],
      "type": "VEC3"
    },
    {
      "bufferView": 1,
      "byteOffset": 22752,
      "componentType": 5126,
      "count": 816,
      "max": [
        1.0,
        1.0,
        1.0
      ],
      "min": [
        -1.0,
        -1.0,
        -1.0
      ],
      "type": "VEC3"
    },
    {
      "bufferView": 0,
      "byteOffset": 3744,
      "componentType": 5125,
      "count": 1290,
      "type": "SCALAR"
    },
    {
      "bufferView": 1,
      "byteOffset": 32544,
      "componentType": 5126,
      "count": 552,
      "max": [
        11.394929885864258,
        4.405139923095703,
        11.941140174865723
      ],
      "min": [
        -4.285419940948486,
        -4.440400123596191,
        -1.001170039176941
      ],
      "type": "VEC3"
    },
    {
      "bufferView": 1,
      "byteOffset": 39168,
      "componentType": 5126,
      "count": 552,
      "max": [
        1.0,
        1.0,
        1.0
      ],
      "min": [
        -1.0,
        -1.0,
        -1.0
      ],
      "type": "VEC3"
    },
    {
      "bufferView": 0,
      "byteOffset": 8904,
      "componentType": 5125,
      "count": 948,
      "type": "SCALAR"
    },
    {
      "bufferView": 1,
      "byteOffset": 45792,
      "componentType": 5126,
      "count": 820,
      "max": [
        10.377969741821289,
        4.765940189361572,
        10.627860069274902
      ],
      "min": [
        -3.190690040588379,
        -4.76747989654541,
        0.900160014629364
      ],
      "type": "VEC3"
    },
    {
      "bufferView": 1,
      "byteOffset": 55632,
      "componentType": 5126,
      "count": 820,
      "max": [
        1.0,
        1.0,
        0.9828251600265503
      ],
      "min": [
        -1.0,
        -1.0,
        -1.0
      ],
      "type": "VEC3"
    },
    {
      "bufferView": 0,
      "byteOffset": 12696,
      "componentType": 5125,
      "count": 1278,
      "type": "SCALAR"
    }
  ],
  "asset": {
    "extras": {
      "author": "Larolei Low Poly (https://sketchfab.com/strix567)",
      "license": "CC-BY-NC-4.0 (http://creativecommons.org/licenses/by-nc/4.0/)",
      "source": "https://sketchfab.com/3d-models/japanese-gates-torii-low-poly-9d95c8e54c2b436f85a21b0f2288afe7",
      "title": "Japanese Gates \"Torii\" (Low Poly)"
    },
    "generator": "Sketchfab-12.63.0",
    "version": "2.0"
  },
  "bufferViews": [
    {
      "buffer": 0,
      "byteLength": 17808,
      "name": "floatBufferViews",
      "target": 34963
    },
    {
      "buffer": 0,
      "byteLength": 65472,
      "byteOffset": 17808,
      "byteStride": 12,
      "name": "floatBufferViews",
      "target": 34962
    }
  ],
  "buffers": [
    {
      "byteLength": 83280,
      "uri": "scene.bin"
    }
  ],
  "materials": [
    {
      "doubleSided": true,
      "name": "japanbuilding13",
      "pbrMetallicRoughness": {
        "baseColorFactor": [
          0.16263887286186218,
          0.02931331284344198,
          0.027713479474186915,
          1.0
        ],
        "metallicFactor": 0.09927591463414634,
        "roughnessFactor": 0.6
      }
    },
    {
      "doubleSided": true,
      "name": "hause_japan16",
      "pbrMetallicRoughness": {
        "baseColorFactor": [
          0.03565164655447006,
          0.04442944750189784,
          0.05221778154373168,
          1.0
        ],
        "metallicFactor": 0.7700076219512195,
        "roughnessFactor": 0.6
      }
    },
    {
      "doubleSided": true,
      "name": "japanbuilding12",
      "pbrMetallicRoughness": {
        "baseColorFactor": [
          0.303197056055069,
          0.05730309337377551,
          0.05414932221174238,
          1.0
        ],
        "metallicFactor": 0.09317835365853659,
        "roughnessFactor": 0.6
      }
    },
    {
      "doubleSided": true,
      "name": "japanbuilding17",
      "pbrMetallicRoughness": {
        "baseColorFactor": [
          0.14731346070766446,
          0.09647719562053676,
          0.07292431592941279,
          1.0
        ],
        "metallicFactor": 0.1053734756097561,
        "roughnessFactor": 0.6
      }
    }
  ],
  "meshes": [
    {
      "name": "Cylinder_0",
      "primitives": [
        {
          "attributes": {
            "NORMAL": 1,
            "POSITION": 0
          },
          "indices": 2,
          "material": 0,
          "mode": 4
        }
      ]
    },
    {
      "name": "Cylinder_1",
      "primitives": [
        {
          "attributes": {
            "NORMAL": 4,
            "POSITION": 3
          },
          "indices": 5,
          "material": 1,
          "mode": 4
        }
      ]
    },
    {
      "name": "Cylinder_2",
      "primitives": [
        {
          "attributes": {
            "NORMAL": 7,
            "POSITION": 6
          },
          "indices": 8,
          "material": 3,
          "mode": 4
        }
      ]
    },
    {
      "name": "Cylinder.002_0",
      "primitives": [
        {
          "attributes": {
            "NORMAL": 10,
            "POSITION": 9
          },
          "indices": 11,
          "material": 0,
          "mode": 4
        }
      ]
    },
    {
      "name": "Cylinder.002_1",
      "primitives": [
        {
          "attributes": {
            "NORMAL": 13,
            "POSITION": 12
          },
          "indices": 14,
          "material": 1,
          "mode": 4
        }
      ]
    },
    {
      "name": "Cylinder.002_2",
      "primitives": [
        {
          "attributes": {
            "NORMAL": 16,
            "POSITION": 15
          },
          "indices": 17,
          "material": 2,
          "mode": 4
        }
      ]
    }
  ],
  "nodes": [
    {
      "children": [
        1
      ],
      "matrix": [
        1.0,
        0.0,
        0.0,
        0.0,
        0.0,
        2.220446049250313e-16,
        -1.0,
        0.0,
        0.0,
        1.0,
        2.220446049250313e-16,
        0.0,
        0.0,
        0.0,
        0.0,
        1.0
      ],
      "name": "Sketchfab_model"
    },
    {
      "children": [
        2,
        6
      ],
      "name": "Root"
    },
    {
      "children": [
        3,
        4,
        5
      ],
      "matrix": [
        0.40455,
        0.0,
        0.0,
        0.0,
        0.0,
        0.40455,
        0.0,
        0.0,
        0.0,
        0.0,
        1.0,
        0.0,
        5.30968,
        1.30505,
        0.032720000000000006,
        1.0
      ],
      "name": "Cylinder"
    },
    {
      "mesh": 0,
      "name": "Cylinder_0"
    },
    {
      "mesh": 1,
      "name": "Cylinder_1"
    },
    {
      "mesh": 2,
      "name": "Cylinder_2"
    },
    {
      "children": [
        7,
        8,
        9
      ],
      "matrix": [
        1.0,
        0.0,
        0.0,
        0.0,
        0.0,
        1.0,
        0.0,
        0.0,
        0.0,
        0.0,
        1.0,
        0.0,
        -9.789349999999999,
        -0.6812500000000001,
        0.9660500000000001,
        1.0
      ],
      "name": "Cylinder.002"
    },
    {
      "mesh": 3,
      "name": "Cylinder.002_0"
    },
    {
      "mesh": 4,
      "name": "Cylinder.002_1"
    },
    {
      "mesh": 5,
      "name": "Cylinder.002_2"
    }
  ],
  "scene": 0,
  "scenes": [
    {
      "name": "Sketchfab_Scene",
      "nodes": [
        0
      ]
    }
  ]
}
